<?xml version="1.0" encoding="UTF-8"?>
<svg xmlns="http://www.w3.org/2000/svg" viewBox="0 0 979 300" width="979" height="300">
<title>CENTRAL LAND</title>
<desc>Logo CENTRAL LAND ngang - Gateway to Central Coast Property. Vector 100%, slogan cân đối với tên thương hiệu.</desc>
<rect width="979" height="300" fill="#ffffff"/><g transform="translate(-10.338,-4.612) scale(0.436211,0.436694) translate(0,704) scale(0.1,-0.1)" fill="#343739" fill-rule="evenodd"><path d="M3830 6790 c-47 -5 -101 -13 -120 -19 -19 -6 -48 -11 -65 -11 -16 0
-65 -9 -110 -19 -44 -11 -132 -32 -195 -46 -63 -15 -123 -33 -134 -41 -11 -8
-30 -14 -41 -14 -11 0 -33 -9 -50 -20 -16 -11 -38 -20 -48 -20 -10 0 -35 -9
-55 -20 -20 -10 -59 -29 -87 -41 -206 -90 -413 -220 -614 -389 -148 -122 -384
-377 -473 -510 -10 -14 -31 -44 -48 -68 -16 -23 -30 -44 -30 -46 0 -1 -23 -41
-51 -87 -27 -46 -64 -113 -81 -149 -16 -36 -34 -72 -39 -80 -5 -8 -12 -22 -15
-30 -3 -8 -16 -37 -29 -65 -12 -27 -27 -65 -34 -82 -29 -85 -35 -101 -53 -145
-10 -26 -18 -57 -18 -69 0 -12 -9 -50 -19 -83 -55 -172 -86 -417 -86 -671 1
-227 23 -441 66 -615 11 -47 26 -110 33 -140 20 -80 58 -192 73 -215 7 -11 13
-28 13 -39 0 -10 8 -37 19 -60 10 -23 24 -52 30 -66 6 -14 15 -32 20 -40 5 -8
26 -51 47 -95 22 -44 48 -93 59 -110 11 -16 26 -41 33 -55 34 -69 77 -130 214
-303 162 -206 530 -534 674 -601 17 -8 36 -22 44 -30 7 -9 17 -16 23 -16 6 0
18 -6 26 -14 19 -15 76 -45 146 -76 28 -12 73 -32 100 -45 65 -29 217 -91 285
-115 45 -16 120 -34 255 -61 28 -6 93 -19 146 -30 110 -23 407 -41 427 -26 17
13 18 507 0 525 -7 7 -43 12 -92 12 -45 0 -117 7 -161 15 -44 8 -98 14 -120
15 -38 0 -103 16 -240 61 -33 10 -67 19 -75 19 -8 1 -33 9 -55 20 -22 11 -45
19 -52 20 -14 0 -175 79 -238 116 -22 13 -53 31 -70 40 -16 9 -74 47 -129 83
-54 36 -109 73 -123 83 -122 80 -396 386 -492 548 -18 30 -47 80 -66 110 -19
30 -34 63 -35 72 0 9 -4 19 -9 22 -11 7 -59 109 -76 161 -7 22 -27 78 -44 125
-17 47 -31 94 -31 105 0 12 -8 48 -19 81 -10 32 -24 95 -30 139 -6 44 -16 103
-21 130 -5 28 -9 147 -9 265 -1 182 2 228 19 298 11 46 20 96 20 110 0 15 9
53 20 85 11 31 20 65 20 74 0 10 14 56 31 103 17 47 37 103 44 125 24 73 172
348 227 420 4 6 18 24 31 40 12 17 30 41 39 55 15 23 72 91 158 186 55 62 183
172 274 236 89 62 290 188 301 188 4 0 34 16 68 36 34 20 80 42 102 49 22 7
72 25 110 40 39 14 88 30 110 35 22 5 54 14 70 20 80 31 259 58 405 61 63 2
123 7 133 11 16 8 17 29 15 276 l-3 267 -80 1 c-44 1 -118 -2 -165 -6z M3897 5685 c-92 -8 -174 -20 -198 -29 -22 -9 -52 -16 -67 -16 -15 0
-44 -9 -65 -20 -20 -11 -44 -20 -52 -20 -9 0 -33 -9 -53 -19 -20 -11 -62 -31
-92 -46 -92 -44 -205 -108 -241 -137 -124 -100 -161 -132 -220 -189 -113 -110
-279 -340 -304 -419 -4 -14 -13 -32 -20 -40 -7 -8 -18 -33 -25 -55 -7 -22 -16
-44 -20 -50 -10 -16 -57 -171 -80 -268 -30 -130 -30 -492 1 -634 27 -123 68
-262 86 -288 7 -11 13 -28 13 -38 0 -10 9 -35 19 -55 10 -20 29 -57 42 -82 12
-25 30 -56 39 -70 144 -216 212 -297 348 -410 148 -123 215 -167 377 -244 190
-92 395 -142 600 -148 l90 -3 5 820 5 820 815 5 815 5 3 74 c3 78 -5 139 -37
281 -26 116 -48 192 -66 226 -8 16 -15 35 -15 42 0 7 -9 31 -20 53 -11 21 -30
58 -42 82 -19 37 -102 165 -174 267 -41 59 -191 206 -269 265 -41 30 -80 62
-88 69 -8 8 -29 22 -48 30 -36 17 -59 30 -98 59 -13 9 -31 17 -39 17 -9 0 -23
6 -31 14 -9 8 -34 21 -56 29 -22 8 -65 25 -95 37 -30 12 -80 29 -110 36 -30 8
-69 19 -87 24 -27 9 -350 42 -378 38 -5 0 -81 -6 -168 -13z M250 4040 c-11 -7 -13 -39 -11 -157 2 -142 6 -183 31 -373 18 -136
45 -282 67 -355 9 -27 21 -75 28 -105 7 -30 17 -68 23 -85 28 -82 45 -134 57
-175 23 -77 45 -134 60 -162 8 -14 15 -33 15 -43 0 -9 8 -33 19 -53 10 -20 28
-57 39 -82 102 -230 288 -536 467 -769 121 -158 401 -450 555 -577 19 -16 50
-44 70 -61 19 -18 38 -33 42 -33 3 0 31 -20 61 -45 31 -25 59 -45 63 -45 4 0
16 -7 26 -17 10 -9 27 -21 37 -27 10 -6 29 -18 42 -27 55 -38 199 -129 203
-129 3 0 20 -10 38 -22 56 -38 347 -177 493 -236 101 -41 248 -91 300 -102 22
-5 57 -16 77 -24 21 -9 48 -16 60 -16 20 0 72 -11 243 -51 59 -14 139 -27 245
-39 207 -24 292 -31 382 -28 l93 3 3 250 c1 138 0 259 -2 271 -5 20 -14 21
-164 27 -87 4 -182 11 -212 17 -30 5 -111 19 -180 30 -234 37 -372 70 -447
105 -17 8 -39 15 -50 15 -10 1 -36 9 -58 20 -22 11 -48 19 -58 20 -10 0 -35 9
-55 19 -20 11 -66 33 -102 49 -125 58 -295 144 -340 172 -43 27 -62 39 -120
71 -43 25 -83 52 -160 111 -41 32 -84 64 -95 72 -147 107 -431 391 -537 537
-9 13 -24 33 -33 44 -138 179 -142 185 -205 295 -14 25 -36 61 -48 80 -12 19
-34 58 -47 85 -14 28 -30 57 -35 65 -15 25 -90 190 -90 200 0 5 -10 31 -21 57
-53 118 -59 135 -59 151 0 9 -9 34 -20 55 -11 20 -20 47 -20 59 0 13 -9 50
-19 83 -66 202 -121 572 -121 807 0 44 -4 59 -17 66 -23 12 -494 13 -513 2z"/></g><path d="M34.375384615384625 0.9868531468531472Q27.71412587412588 0.9868531468531472 21.9986013986014 -1.1924475524475526Q16.283076923076926 -3.3717482517482527 12.088951048951053 -7.401398601398603Q7.894825174825177 -11.431048951048954 5.551048951048953 -16.85874125874126Q3.207272727272728 -22.286433566433573 3.207272727272728 -28.78321678321679Q3.207272727272728 -35.28000000000001 5.551048951048953 -40.70769230769232Q7.894825174825177 -46.13538461538463 12.130069930069933 -50.16503496503498Q16.36531468531469 -54.19468531468533 22.039720279720285 -56.37398601398603Q27.71412587412588 -58.55328671328673 34.457622377622386 -58.55328671328673Q41.94125874125875 -58.55328671328673 47.98573426573428 -55.96279720279722Q54.0302097902098 -53.37230769230771 58.142097902097916 -48.35580419580421L49.58937062937064 -40.46097902097903Q46.6288111888112 -43.83272727272728 43.01034965034966 -45.51860139860141Q39.39188811188812 -47.20447552447554 35.11552447552449 -47.20447552447554Q31.085874125874135 -47.20447552447554 27.714125874125884 -45.88867132867134Q24.34237762237763 -44.572867132867145 21.87524475524476 -42.10573426573428Q19.408111888111893 -39.63860139860141 18.051188811188815 -36.26685314685316Q16.694265734265738 -32.89510489510491 16.694265734265738 -28.78321678321679Q16.694265734265738 -24.671328671328677 18.051188811188815 -21.299580419580423Q19.408111888111893 -17.92783216783217 21.87524475524476 -15.460699300699304Q24.34237762237763 -12.993566433566437 27.714125874125884 -11.677762237762241Q31.085874125874135 -10.361958041958045 35.11552447552449 -10.361958041958045Q39.39188811188812 -10.361958041958045 43.01034965034966 -12.047832167832173Q46.6288111888112 -13.733706293706298 49.58937062937064 -17.187692307692313L58.142097902097916 -9.292867132867135Q54.0302097902098 -4.276363636363637 47.98573426573428 -1.644755244755245Q41.94125874125875 0.9868531468531472 34.375384615384625 0.9868531468531472Z M68.01062937062939 0.0V-57.56643356643358H111.51440559440562V-46.875524475524486H81.25090909090912V-10.690909090909093H112.58349650349653V0.0ZM80.26405594405597 -24.01342657342658V-34.375384615384625H107.97818181818184V-24.01342657342658Z M124.83692307692311 0.0V-57.56643356643358H135.85678321678324L169.82097902097905 -16.118601398601403H164.47552447552454V-57.56643356643358H177.6335664335665V0.0H166.6959440559441L132.64951048951053 -41.44783216783218H137.99496503496508V0.0Z M204.8542657342658 0.0V-46.711048951048966H186.43300699300704V-57.56643356643358H236.59804195804202V-46.711048951048966H218.1767832167833V0.0Z M245.3974825174826 0.0V-57.56643356643358H269.9865734265735Q281.9932867132868 -57.56643356643358 288.65454545454554 -52.01538461538463Q295.3158041958043 -46.46433566433568 295.3158041958043 -36.678041958041966Q295.3158041958043 -30.263496503496512 292.2730069930071 -25.617062937062943Q289.23020979020987 -20.970629370629375 283.63804195804204 -18.503496503496507Q278.0458741258742 -16.036363636363642 270.31552447552457 -16.036363636363642H252.79888111888118L258.7200000000001 -21.87524475524476V0.0ZM281.9932867132868 0.0 267.6016783216784 -20.888391608391615H281.82881118881124L296.3848951048952 0.0ZM258.7200000000001 -20.39496503496504 252.79888111888118 -26.645034965034974H269.5753846153847Q275.74321678321684 -26.645034965034974 278.78601398601404 -29.317762237762246Q281.82881118881124 -31.990489510489517 281.82881118881124 -36.678041958041966Q281.82881118881124 -41.44783216783218 278.78601398601404 -44.07944055944057Q275.74321678321684 -46.711048951048966 269.5753846153847 -46.711048951048966H252.79888111888118L258.7200000000001 -53.04335664335666Z M299.921118881119 0.0 325.5793006993008 -57.56643356643358H338.73734265734277L364.47776223776236 0.0H350.49734265734276L329.44447552447565 -50.82293706293708H334.7076923076924L313.5725874125875 0.0ZM312.7502097902099 -12.335664335664339 316.2864335664337 -22.450909090909096H345.8920279720281L349.5104895104896 -12.335664335664339Z M372.12587412587425 0.0V-57.56643356643358H385.4483916083918V-10.855384615384619H414.3138461538463V0.0Z M448.36027972027983 0.0V-57.56643356643358H461.68279720279736V-10.855384615384619H490.5482517482519V0.0Z M492.1107692307694 0.0 517.7689510489512 -57.56643356643358H530.9269930069931L556.6674125874127 0.0H542.6869930069931L521.634125874126 -50.82293706293708H526.8973426573428L505.7622377622379 0.0ZM504.9398601398603 -12.335664335664339 508.47608391608406 -22.450909090909096H538.0816783216785L541.70013986014 -12.335664335664339Z M564.3155244755246 0.0V-57.56643356643358H575.3353846153848L609.2995804195806 -16.118601398601403H603.954125874126V-57.56643356643358H617.112167832168V0.0H606.1745454545456L572.128111888112 -41.44783216783218H577.4735664335666V0.0Z M632.4083916083918 0.0V-57.56643356643358H658.5600000000002Q667.935104895105 -57.56643356643358 675.0897902097904 -53.98909090909092Q682.2444755244757 -50.411748251748264 686.274125874126 -43.99720279720281Q690.3037762237764 -37.582657342657356 690.3037762237764 -28.78321678321679Q690.3037762237764 -20.066013986013992 686.274125874126 -13.610349650349654Q682.2444755244757 -7.154685314685317 675.0897902097904 -3.5773426573426583Q667.935104895105 0.0 658.5600000000002 0.0ZM645.7309090909092 -10.93762237762238H657.902097902098Q663.6587412587414 -10.93762237762238 667.8939860139863 -13.11692307692308Q672.129230769231 -15.29622377622378 674.4730069930072 -19.32587412587413Q676.8167832167834 -23.355524475524483 676.8167832167834 -28.78321678321679Q676.8167832167834 -34.293146853146865 674.4730069930072 -38.281678321678335Q672.129230769231 -42.270209790209805 667.8939860139863 -44.4495104895105Q663.6587412587414 -46.6288111888112 657.902097902098 -46.6288111888112H645.7309090909092Z" fill="#343739" transform="translate(272,135.29999999999998)"/><path d="M8.13619300699301 0.09662937062937066Q6.609448951048953 0.09662937062937066 5.3146153846153865 -0.41550629370629377Q4.019781818181819 -0.9276419580419583 3.06315104895105 -1.8552839160839165Q2.10652027972028 -2.782925874125875 1.5847216783216784 -4.029444755244756Q1.062923076923077 -5.275963636363637 1.062923076923077 -6.764055944055945Q1.062923076923077 -8.252148251748254 1.5847216783216784 -9.498667132867135Q2.10652027972028 -10.745186013986016 3.072813986013987 -11.672827972027974Q4.039107692307693 -12.600469930069933 5.324278321678323 -13.112605594405597Q6.609448951048953 -13.624741258741262 8.155518881118883 -13.624741258741262Q9.624285314685316 -13.624741258741262 10.880467132867135 -13.160920279720283Q12.136648951048954 -12.697099300699303 13.025639160839164 -11.769457342657345L12.407211188811191 -11.112377622377625Q11.518220979020981 -11.982041958041961 10.464960839160842 -12.349233566433568Q9.4117006993007 -12.716425174825178 8.174844755244758 -12.716425174825178Q6.860685314685316 -12.716425174825178 5.739784615384616 -12.271930069930072Q4.6188839160839175 -11.827434965034968 3.7878713286713297 -11.015748251748255Q2.956858741258742 -10.204061538461541 2.5027006993007 -9.12181258741259Q2.048542657342658 -8.039563636363638 2.048542657342658 -6.764055944055945Q2.048542657342658 -5.488548251748253 2.5027006993007 -4.406299300699302Q2.956858741258742 -3.3240503496503506 3.7878713286713297 -2.512363636363637Q4.6188839160839175 -1.7006769230769234 5.739784615384616 -1.2561818181818185Q6.860685314685316 -0.8116867132867135 8.174844755244758 -0.8116867132867135Q9.373048951048954 -0.8116867132867135 10.445634965034968 -1.178878321678322Q11.518220979020981 -1.5460699300699305 12.407211188811191 -2.396408391608392L12.967661538461542 -1.6426993006993011Q12.059345454545458 -0.7730349650349653 10.7935006993007 -0.33820279720279733Q9.527655944055946 0.09662937062937066 8.13619300699301 0.09662937062937066ZM12.967661538461542 -1.6426993006993011 12.02069370629371 -1.758654545454546V-6.706078321678323H12.967661538461542Z M16.5816 0.0 22.804531468531472 -13.52811188811189H23.790151048951053L30.013082517482523 0.0H28.950159440559446L23.07509370629371 -12.90968391608392H23.500262937062942L17.64452307692308 0.0ZM18.86205314685315 -3.807197202797204 19.190593006993012 -4.638209790209792H27.28813426573427L27.616674125874134 -3.807197202797204Z M36.6032055944056 0.0V-12.63912167832168H31.73308531468532V-13.52811188811189H42.45894545454546V-12.63912167832168H37.58882517482518V0.0Z M46.44007552447553 0.0V-13.52811188811189H55.48458461538462V-12.63912167832168H47.42569510489511V-0.88899020979021H55.77447272727274V0.0ZM47.309739860139864 -6.435516083916085V-7.305180419580421H54.63424615384616V-6.435516083916085Z M63.92999160839162 0.0 59.33043356643358 -13.52811188811189H60.37403076923078L64.74167832167834 -0.599102097902098H64.21987972027974L68.7228083916084 -13.52811188811189H69.66977622377624L74.13405314685316 -0.599102097902098H73.63158041958043L78.03787972027973 -13.52811188811189H79.00417342657344L74.42394125874127 0.0H73.38034405594406L69.05134825174827 -12.503840559440562H69.30258461538463L64.97358881118882 0.0Z M81.4199076923077 0.0 87.64283916083917 -13.52811188811189H88.62845874125875L94.85139020979022 0.0H93.78846713286714L87.91340139860141 -12.90968391608392H88.33857062937064L82.48283076923077 0.0ZM83.70036083916085 -3.807197202797204 84.0289006993007 -4.638209790209792H92.12644195804197L92.45498181818184 -3.807197202797204Z M102.04061538461539 0.0V-4.908772027972029L102.27252587412588 -4.2710181818181825L96.59071888111889 -13.52811188811189H97.67296783216784L102.83297622377623 -5.121356643356645H102.29185174825176L107.45186013986014 -13.52811188811189H108.47613146853148L102.79432447552448 -4.2710181818181825L103.02623496503497 -4.908772027972029V0.0Z M121.57907412587414 0.0V-12.63912167832168H116.70895384615386V-13.52811188811189H127.434813986014V-12.63912167832168H122.56469370629372V0.0Z M137.15572867132872 0.09662937062937066Q135.64831048951052 0.09662937062937066 134.36313986013988 -0.41550629370629377Q133.07796923076927 -0.9276419580419583 132.1213384615385 -1.8649468531468536Q131.16470769230773 -2.802251748251749 130.64290909090914 -4.0487706293706305Q130.12111048951053 -5.2952895104895115 130.12111048951053 -6.764055944055945Q130.12111048951053 -8.23282237762238 130.64290909090914 -9.479341258741261Q131.16470769230773 -10.725860139860142 132.1213384615385 -11.663165034965036Q133.07796923076927 -12.600469930069933 134.36313986013988 -13.112605594405597Q135.64831048951052 -13.624741258741262 137.15572867132872 -13.624741258741262Q138.66314685314688 -13.624741258741262 139.9483174825175 -13.112605594405597Q141.23348811188814 -12.600469930069933 142.18045594405598 -11.672827972027974Q143.12742377622382 -10.745186013986016 143.65888531468534 -9.498667132867135Q144.19034685314688 -8.252148251748254 144.19034685314688 -6.764055944055945Q144.19034685314688 -5.275963636363637 143.65888531468534 -4.029444755244756Q143.12742377622382 -2.782925874125875 142.18045594405598 -1.8552839160839165Q141.23348811188814 -0.9276419580419583 139.9483174825175 -0.41550629370629377Q138.66314685314688 0.09662937062937066 137.15572867132872 0.09662937062937066ZM137.15572867132872 -0.8116867132867135Q138.45056223776228 -0.8116867132867135 139.5521370629371 -1.2561818181818185Q140.65371188811193 -1.7006769230769234 141.46539860139865 -2.512363636363637Q142.27708531468534 -3.3240503496503506 142.7312433566434 -4.406299300699302Q143.18540139860144 -5.488548251748253 143.18540139860144 -6.764055944055945Q143.18540139860144 -8.058889510489513 142.7312433566434 -9.131475524475526Q142.27708531468534 -10.204061538461541 141.46539860139865 -11.015748251748255Q140.65371188811193 -11.827434965034968 139.5521370629371 -12.271930069930072Q138.45056223776228 -12.716425174825178 137.15572867132872 -12.716425174825178Q135.86089510489515 -12.716425174825178 134.75932027972033 -12.271930069930072Q133.65774545454548 -11.827434965034968 132.83639580419583 -11.015748251748255Q132.01504615384619 -10.204061538461541 131.56088811188815 -9.131475524475526Q131.1067300699301 -8.058889510489513 131.1067300699301 -6.764055944055945Q131.1067300699301 -5.488548251748253 131.56088811188815 -4.406299300699302Q132.01504615384619 -3.3240503496503506 132.83639580419583 -2.512363636363637Q133.65774545454548 -1.7006769230769234 134.75932027972033 -1.2561818181818185Q135.86089510489515 -0.8116867132867135 137.15572867132872 -0.8116867132867135Z M161.39037482517486 0.09662937062937066Q159.88295664335666 0.09662937062937066 158.59778601398602 -0.41550629370629377Q157.3126153846154 -0.9276419580419583 156.36564755244757 -1.8552839160839165Q155.41867972027975 -2.782925874125875 154.89688111888114 -4.029444755244756Q154.37508251748255 -5.275963636363637 154.37508251748255 -6.764055944055945Q154.37508251748255 -8.252148251748254 154.89688111888114 -9.498667132867135Q155.41867972027975 -10.745186013986016 156.37531048951053 -11.672827972027974Q157.3319412587413 -12.600469930069933 158.60744895104898 -13.112605594405597Q159.88295664335666 -13.624741258741262 161.39037482517486 -13.624741258741262Q162.82048951048955 -13.624741258741262 164.06700839160843 -13.160920279720283Q165.3135272727273 -12.697099300699303 166.20251748251752 -11.750131468531471L165.58408951048955 -11.112377622377625Q164.7144251748252 -11.962716083916087 163.66116503496505 -12.339570629370632Q162.60790489510492 -12.716425174825178 161.4290265734266 -12.716425174825178Q160.13419300699303 -12.716425174825178 159.02295524475528 -12.271930069930072Q157.9117174825175 -11.827434965034968 157.09036783216786 -11.015748251748255Q156.2690181818182 -10.204061538461541 155.81486013986017 -9.12181258741259Q155.36070209790213 -8.039563636363638 155.36070209790213 -6.764055944055945Q155.36070209790213 -5.488548251748253 155.81486013986017 -4.406299300699302Q156.2690181818182 -3.3240503496503506 157.09036783216786 -2.512363636363637Q157.9117174825175 -1.7006769230769234 159.02295524475528 -1.2561818181818185Q160.13419300699303 -0.8116867132867135 161.4290265734266 -0.8116867132867135Q162.60790489510492 -0.8116867132867135 163.66116503496505 -1.188541258741259Q164.7144251748252 -1.5653958041958045 165.58408951048955 -2.4350601398601404L166.20251748251752 -1.797306293706294Q165.3135272727273 -0.8503384615384617 164.06700839160843 -0.37685454545454555Q162.82048951048955 0.09662937062937066 161.39037482517486 0.09662937062937066Z M170.86005314685318 0.0V-13.52811188811189H179.90456223776226V-12.63912167832168H171.84567272727276V-0.88899020979021H180.19445034965037V0.0ZM171.72971748251751 -6.435516083916085V-7.305180419580421H179.0542237762238V-6.435516083916085Z M185.3351328671329 0.0V-13.52811188811189H186.16614545454547L195.80975664335668 -1.2175300699300702H195.36526153846157V-13.52811188811189H196.35088111888115V0.0H195.53919440559443L185.87625734265737 -12.310581818181822H186.32075244755248V0.0Z M205.2021314685315 0.0V-12.63912167832168H200.3320111888112V-13.52811188811189H211.05787132867135V-12.63912167832168H206.18775104895107V0.0Z M215.0390013986014 0.0V-13.52811188811189H219.8897958041958Q222.4408111888112 -13.52811188811189 223.89025174825176 -12.329907692307696Q225.3396923076923 -11.1317034965035 225.3396923076923 -8.967205594405597Q225.3396923076923 -7.556416783216785 224.6826125874126 -6.541808391608393Q224.02553286713288 -5.5272000000000014 222.8080027972028 -4.976412587412589Q221.59047272727273 -4.425625174825176 219.8897958041958 -4.425625174825176H215.58012587412588L216.024620979021 -4.889446153846155V0.0ZM224.43137622377623 0.0 220.91406713286713 -4.908772027972029H222.03496783216784L225.55227692307693 0.0ZM216.024620979021 -4.831468531468532 215.58012587412588 -5.2952895104895115H219.8897958041958Q222.0736195804196 -5.2952895104895115 223.20418321678324 -6.261583216783218Q224.33474685314687 -7.227876923076924 224.33474685314687 -8.967205594405597Q224.33474685314687 -10.725860139860142 223.20418321678324 -11.682490909090912Q222.0736195804196 -12.63912167832168 219.8897958041958 -12.63912167832168H215.58012587412588L216.024620979021 -13.122268531468535Z M228.23857342657342 0.0 234.4615048951049 -13.52811188811189H235.44712447552448L241.67005594405595 0.0H240.6071328671329L234.73206713286714 -12.90968391608392H235.15723636363637L229.3014965034965 0.0ZM230.51902657342657 -3.807197202797204 230.84756643356644 -4.638209790209792H238.94510769230772L239.27364755244756 -3.807197202797204Z M245.67051188811192 0.0V-13.52811188811189H246.6561314685315V-0.88899020979021H254.44445874125876V0.0Z M270.75549650349654 0.09662937062937066Q269.2480783216784 0.09662937062937066 267.9629076923078 -0.41550629370629377Q266.6777370629371 -0.9276419580419583 265.7307692307693 -1.8552839160839165Q264.78380139860144 -2.782925874125875 264.26200279720285 -4.029444755244756Q263.74020419580427 -5.275963636363637 263.74020419580427 -6.764055944055945Q263.74020419580427 -8.252148251748254 264.26200279720285 -9.498667132867135Q264.78380139860144 -10.745186013986016 265.7404321678322 -11.672827972027974Q266.697062937063 -12.600469930069933 267.9725706293707 -13.112605594405597Q269.2480783216784 -13.624741258741262 270.75549650349654 -13.624741258741262Q272.18561118881127 -13.624741258741262 273.43213006993017 -13.160920279720283Q274.678648951049 -12.697099300699303 275.56763916083924 -11.750131468531471L274.94921118881126 -11.112377622377625Q274.0795468531469 -11.962716083916087 273.02628671328677 -12.339570629370632Q271.97302657342664 -12.716425174825178 270.7941482517483 -12.716425174825178Q269.49931468531474 -12.716425174825178 268.388076923077 -12.271930069930072Q267.27683916083924 -11.827434965034968 266.4554895104896 -11.015748251748255Q265.63413986013995 -10.204061538461541 265.1799818181819 -9.12181258741259Q264.7258237762238 -8.039563636363638 264.7258237762238 -6.764055944055945Q264.7258237762238 -5.488548251748253 265.1799818181819 -4.406299300699302Q265.63413986013995 -3.3240503496503506 266.4554895104896 -2.512363636363637Q267.27683916083924 -1.7006769230769234 268.388076923077 -1.2561818181818185Q269.49931468531474 -0.8116867132867135 270.7941482517483 -0.8116867132867135Q271.97302657342664 -0.8116867132867135 273.02628671328677 -1.188541258741259Q274.0795468531469 -1.5653958041958045 274.94921118881126 -2.4350601398601404L275.56763916083924 -1.797306293706294Q274.678648951049 -0.8503384615384617 273.43213006993017 -0.37685454545454555Q272.18561118881127 0.09662937062937066 270.75549650349654 0.09662937062937066Z M285.96495944055954 0.09662937062937066Q284.45754125874134 0.09662937062937066 283.1723706293707 -0.41550629370629377Q281.88720000000006 -0.9276419580419583 280.93056923076927 -1.8649468531468536Q279.9739384615385 -2.802251748251749 279.45213986013994 -4.0487706293706305Q278.93034125874135 -5.2952895104895115 278.93034125874135 -6.764055944055945Q278.93034125874135 -8.23282237762238 279.45213986013994 -9.479341258741261Q279.9739384615385 -10.725860139860142 280.93056923076927 -11.663165034965036Q281.88720000000006 -12.600469930069933 283.1723706293707 -13.112605594405597Q284.45754125874134 -13.624741258741262 285.96495944055954 -13.624741258741262Q287.47237762237773 -13.624741258741262 288.75754825174835 -13.112605594405597Q290.04271888111896 -12.600469930069933 290.9896867132868 -11.672827972027974Q291.93665454545464 -10.745186013986016 292.4681160839162 -9.498667132867135Q292.9995776223777 -8.252148251748254 292.9995776223777 -6.764055944055945Q292.9995776223777 -5.275963636363637 292.4681160839162 -4.029444755244756Q291.93665454545464 -2.782925874125875 290.9896867132868 -1.8552839160839165Q290.04271888111896 -0.9276419580419583 288.75754825174835 -0.41550629370629377Q287.47237762237773 0.09662937062937066 285.96495944055954 0.09662937062937066ZM285.96495944055954 -0.8116867132867135Q287.2597930069931 -0.8116867132867135 288.36136783216796 -1.2561818181818185Q289.46294265734275 -1.7006769230769234 290.27462937062944 -2.512363636363637Q291.0863160839162 -3.3240503496503506 291.5404741258742 -4.406299300699302Q291.99463216783226 -5.488548251748253 291.99463216783226 -6.764055944055945Q291.99463216783226 -8.058889510489513 291.5404741258742 -9.131475524475526Q291.0863160839162 -10.204061538461541 290.27462937062944 -11.015748251748255Q289.46294265734275 -11.827434965034968 288.36136783216796 -12.271930069930072Q287.2597930069931 -12.716425174825178 285.96495944055954 -12.716425174825178Q284.670125874126 -12.716425174825178 283.5685510489511 -12.271930069930072Q282.4669762237763 -11.827434965034968 281.6456265734267 -11.015748251748255Q280.82427692307704 -10.204061538461541 280.37011888111897 -9.131475524475526Q279.9159608391609 -8.058889510489513 279.9159608391609 -6.764055944055945Q279.9159608391609 -5.488548251748253 280.37011888111897 -4.406299300699302Q280.82427692307704 -3.3240503496503506 281.6456265734267 -2.512363636363637Q282.4669762237763 -1.7006769230769234 283.5685510489511 -1.2561818181818185Q284.670125874126 -0.8116867132867135 285.96495944055954 -0.8116867132867135Z M295.7052000000001 0.0 301.92813146853155 -13.52811188811189H302.91375104895116L309.1366825174826 0.0H308.0737594405595L302.1986937062938 -12.90968391608392H302.62386293706305L296.7681230769232 0.0ZM297.9856531468532 -3.807197202797204 298.3141930069931 -4.638209790209792H306.41173426573437L306.74027412587424 -3.807197202797204Z M316.6930993006994 0.09662937062937066Q315.1856811188812 0.09662937062937066 313.84253286713295 -0.41550629370629377Q312.4993846153847 -0.9276419580419583 311.7650013986015 -1.7393286713286717L312.20949650349655 -2.4737118881118887Q312.90522797202806 -1.758654545454546 314.1130951048952 -1.2658447552447556Q315.32096223776233 -0.7730349650349653 316.6737734265735 -0.7730349650349653Q318.0265846153847 -0.7730349650349653 318.88658601398606 -1.1305636363636367Q319.7465874125875 -1.488092307692308 320.1620937062938 -2.0871944055944063Q320.5776000000001 -2.686296503496504 320.5776000000001 -3.420679720279721Q320.5776000000001 -4.290344055944057 320.1137790209791 -4.812142657342658Q319.64995804195814 -5.33394125874126 318.8962489510491 -5.6431552447552455Q318.14253986013995 -5.952369230769232 317.2535496503497 -6.164953846153848Q316.3645594405595 -6.377538461538463 315.4562433566434 -6.61911188811189Q314.54792727272735 -6.860685314685316 313.7942181818182 -7.2472027972027995Q313.04050909090915 -7.633720279720282 312.5863510489511 -8.300462937062939Q312.1321930069931 -8.967205594405597 312.1321930069931 -10.030128671328674Q312.1321930069931 -10.99642237762238 312.6346657342658 -11.808109090909094Q313.13713846153854 -12.619795804195807 314.2000615384616 -13.122268531468535Q315.2629846153847 -13.624741258741262 316.92500979020986 -13.624741258741262Q318.04591048951056 -13.624741258741262 319.13782237762246 -13.2962013986014Q320.22973426573435 -12.967661538461542 321.00276923076933 -12.407211188811191L320.6355776223777 -11.614850349650352Q319.78523916083924 -12.194626573426577 318.8092825174826 -12.474851748251751Q317.83332587412593 -12.755076923076926 316.92500979020986 -12.755076923076926Q315.6301762237763 -12.755076923076926 314.77983776223783 -12.387885314685317Q313.9294993006994 -12.02069370629371 313.52365594405603 -11.411928671328674Q313.1178125874127 -10.803163636363639 313.1178125874127 -10.049454545454548Q313.1178125874127 -9.179790209790212 313.57197062937075 -8.657991608391612Q314.02612867132876 -8.13619300699301 314.77983776223783 -7.826979020979023Q315.5335468531469 -7.517765034965037 316.441862937063 -7.305180419580422Q317.3501790209791 -7.092595804195806 318.23916923076933 -6.85102237762238Q319.1281594405595 -6.609448951048953 319.8818685314686 -6.2229314685314705Q320.6355776223777 -5.836413986013987 321.09939860139866 -5.179334265734267Q321.5632195804196 -4.522254545454547 321.5632195804196 -3.4786573426573435Q321.5632195804196 -2.531689510489511 321.04142097902104 -1.7103398601398605Q320.51962237762245 -0.88899020979021 319.44703636363647 -0.3961804195804197Q318.37445034965043 0.09662937062937066 316.6930993006994 0.09662937062937066Z M329.0423328671329 0.0V-12.63912167832168H324.1722125874126V-13.52811188811189H334.8980727272728V-12.63912167832168H330.0279524475525V0.0Z M345.3920223776225 0.0V-13.52811188811189H350.2428167832169Q351.9434937062938 -13.52811188811189 353.16102377622383 -12.986987412587414Q354.3785538461539 -12.44586293706294 355.03563356643366 -11.431254545454546Q355.6927132867134 -10.416646153846155 355.6927132867134 -8.967205594405597Q355.6927132867134 -7.556416783216785 355.03563356643366 -6.532145454545456Q354.3785538461539 -5.507874125874127 353.16102377622383 -4.9667496503496515Q351.9434937062938 -4.425625174825176 350.2428167832169 -4.425625174825176H345.9331468531469L346.37764195804203 -4.889446153846155V0.0ZM346.37764195804203 -4.831468531468532 345.9331468531469 -5.314615384615386H350.2428167832169Q352.42664055944067 -5.314615384615386 353.5572041958043 -6.271246153846155Q354.68776783216794 -7.227876923076924 354.68776783216794 -8.967205594405597Q354.68776783216794 -10.725860139860142 353.5572041958043 -11.682490909090912Q352.42664055944067 -12.63912167832168 350.2428167832169 -12.63912167832168H345.9331468531469L346.37764195804203 -13.122268531468535Z M360.7560923076924 0.0V-13.52811188811189H365.6068867132868Q368.1579020979022 -13.52811188811189 369.60734265734277 -12.329907692307696Q371.05678321678334 -11.1317034965035 371.05678321678334 -8.967205594405597Q371.05678321678334 -7.556416783216785 370.3997034965036 -6.541808391608393Q369.74262377622387 -5.5272000000000014 368.5250937062938 -4.976412587412589Q367.30756363636374 -4.425625174825176 365.6068867132868 -4.425625174825176H361.29721678321687L361.741711888112 -4.889446153846155V0.0ZM370.14846713286727 0.0 366.63115804195814 -4.908772027972029H367.75205874125885L371.269367832168 0.0ZM361.741711888112 -4.831468531468532 361.29721678321687 -5.2952895104895115H365.6068867132868Q367.7907104895106 -5.2952895104895115 368.9212741258742 -6.261583216783218Q370.0518377622379 -7.227876923076924 370.0518377622379 -8.967205594405597Q370.0518377622379 -10.725860139860142 368.9212741258742 -11.682490909090912Q367.7907104895106 -12.63912167832168 365.6068867132868 -12.63912167832168H361.29721678321687L361.741711888112 -13.122268531468535Z M381.9565762237764 0.09662937062937066Q380.4491580419582 0.09662937062937066 379.1639874125875 -0.41550629370629377Q377.8788167832169 -0.9276419580419583 376.9221860139861 -1.8649468531468536Q375.96555524475536 -2.802251748251749 375.4437566433568 -4.0487706293706305Q374.9219580419582 -5.2952895104895115 374.9219580419582 -6.764055944055945Q374.9219580419582 -8.23282237762238 375.4437566433568 -9.479341258741261Q375.96555524475536 -10.725860139860142 376.9221860139861 -11.663165034965036Q377.8788167832169 -12.600469930069933 379.1639874125875 -13.112605594405597Q380.4491580419582 -13.624741258741262 381.9565762237764 -13.624741258741262Q383.4639944055946 -13.624741258741262 384.7491650349652 -13.112605594405597Q386.0343356643358 -12.600469930069933 386.98130349650364 -11.672827972027974Q387.9282713286715 -10.745186013986016 388.459732867133 -9.498667132867135Q388.99119440559457 -8.252148251748254 388.99119440559457 -6.764055944055945Q388.99119440559457 -5.275963636363637 388.459732867133 -4.029444755244756Q387.9282713286715 -2.782925874125875 386.98130349650364 -1.8552839160839165Q386.0343356643358 -0.9276419580419583 384.7491650349652 -0.41550629370629377Q383.4639944055946 0.09662937062937066 381.9565762237764 0.09662937062937066ZM381.9565762237764 -0.8116867132867135Q383.25140979020995 -0.8116867132867135 384.3529846153848 -1.2561818181818185Q385.4545594405596 -1.7006769230769234 386.2662461538463 -2.512363636363637Q387.07793286713303 -3.3240503496503506 387.53209090909104 -4.406299300699302Q387.9862489510491 -5.488548251748253 387.9862489510491 -6.764055944055945Q387.9862489510491 -8.058889510489513 387.53209090909104 -9.131475524475526Q387.07793286713303 -10.204061538461541 386.2662461538463 -11.015748251748255Q385.4545594405596 -11.827434965034968 384.3529846153848 -12.271930069930072Q383.25140979020995 -12.716425174825178 381.9565762237764 -12.716425174825178Q380.6617426573428 -12.716425174825178 379.56016783216796 -12.271930069930072Q378.45859300699317 -11.827434965034968 377.6372433566435 -11.015748251748255Q376.8158937062939 -10.204061538461541 376.3617356643358 -9.131475524475526Q375.90757762237774 -8.058889510489513 375.90757762237774 -6.764055944055945Q375.90757762237774 -5.488548251748253 376.3617356643358 -4.406299300699302Q376.8158937062939 -3.3240503496503506 377.6372433566435 -2.512363636363637Q378.45859300699317 -1.7006769230769234 379.56016783216796 -1.2561818181818185Q380.6617426573428 -0.8116867132867135 381.9565762237764 -0.8116867132867135Z M393.9579440559442 0.0V-13.52811188811189H398.8087384615386Q400.5094153846155 -13.52811188811189 401.72694545454556 -12.986987412587414Q402.94447552447565 -12.44586293706294 403.6015552447554 -11.431254545454546Q404.2586349650351 -10.416646153846155 404.2586349650351 -8.967205594405597Q404.2586349650351 -7.556416783216785 403.6015552447554 -6.532145454545456Q402.94447552447565 -5.507874125874127 401.72694545454556 -4.9667496503496515Q400.5094153846155 -4.425625174825176 398.8087384615386 -4.425625174825176H394.49906853146865L394.94356363636376 -4.889446153846155V0.0ZM394.94356363636376 -4.831468531468532 394.49906853146865 -5.314615384615386H398.8087384615386Q400.9925622377624 -5.314615384615386 402.123125874126 -6.271246153846155Q403.25368951048966 -7.227876923076924 403.25368951048966 -8.967205594405597Q403.25368951048966 -10.725860139860142 402.123125874126 -11.682490909090912Q400.9925622377624 -12.63912167832168 398.8087384615386 -12.63912167832168H394.49906853146865L394.94356363636376 -13.122268531468535Z M409.32201398601416 0.0V-13.52811188811189H418.3665230769232V-12.63912167832168H410.3076335664337V-0.88899020979021H418.6564111888114V0.0ZM410.19167832167847 -6.435516083916085V-7.305180419580421H417.51618461538476V-6.435516083916085Z M423.7970937062939 0.0V-13.52811188811189H428.6478881118883Q431.19890349650365 -13.52811188811189 432.6483440559442 -12.329907692307696Q434.0977846153848 -11.1317034965035 434.0977846153848 -8.967205594405597Q434.0977846153848 -7.556416783216785 433.44070489510506 -6.541808391608393Q432.7836251748253 -5.5272000000000014 431.5660951048952 -4.976412587412589Q430.3485650349652 -4.425625174825176 428.6478881118883 -4.425625174825176H424.3382181818183L424.78271328671343 -4.889446153846155V0.0ZM433.1894685314687 0.0 429.6721594405596 -4.908772027972029H430.7930601398603L434.3103692307694 0.0ZM424.78271328671343 -4.831468531468532 424.3382181818183 -5.2952895104895115H428.6478881118883Q430.83171188811207 -5.2952895104895115 431.9622755244757 -6.261583216783218Q433.09283916083933 -7.227876923076924 433.09283916083933 -8.967205594405597Q433.09283916083933 -10.725860139860142 431.9622755244757 -11.682490909090912Q430.83171188811207 -12.63912167832168 428.6478881118883 -12.63912167832168H424.3382181818183L424.78271328671343 -13.122268531468535Z M441.84746013986035 0.0V-12.63912167832168H436.97733986014003V-13.52811188811189H447.7032000000002V-12.63912167832168H442.8330797202799V0.0Z M454.8730993006995 0.0V-4.908772027972029L455.10500979021003 -4.2710181818181825L449.42320279720303 -13.52811188811189H450.50545174825197L455.6654601398604 -5.121356643356645H455.1243356643359L460.2843440559443 -13.52811188811189H461.3086153846156L455.6268083916086 -4.2710181818181825L455.8587188811191 -4.908772027972029V0.0Z" fill="#343739" transform="translate(272,209.26405594405594)"/>
</svg>