<?xml version="1.0" encoding="UTF-8"?>
<svg xmlns="http://www.w3.org/2000/svg" viewBox="0 0 400 400" width="400" height="400">
<title>CENTRAL LAND Symbol</title>

<g transform="translate(30.504,-1.854) scale(0.569447,0.570129) translate(0,704) scale(0.1,-0.1)" fill="#1f1f1f" fill-rule="evenodd"><path d="M3830 6790 c-47 -5 -101 -13 -120 -19 -19 -6 -48 -11 -65 -11 -16 0
-65 -9 -110 -19 -44 -11 -132 -32 -195 -46 -63 -15 -123 -33 -134 -41 -11 -8
-30 -14 -41 -14 -11 0 -33 -9 -50 -20 -16 -11 -38 -20 -48 -20 -10 0 -35 -9
-55 -20 -20 -10 -59 -29 -87 -41 -206 -90 -413 -220 -614 -389 -148 -122 -384
-377 -473 -510 -10 -14 -31 -44 -48 -68 -16 -23 -30 -44 -30 -46 0 -1 -23 -41
-51 -87 -27 -46 -64 -113 -81 -149 -16 -36 -34 -72 -39 -80 -5 -8 -12 -22 -15
-30 -3 -8 -16 -37 -29 -65 -12 -27 -27 -65 -34 -82 -29 -85 -35 -101 -53 -145
-10 -26 -18 -57 -18 -69 0 -12 -9 -50 -19 -83 -55 -172 -86 -417 -86 -671 1
-227 23 -441 66 -615 11 -47 26 -110 33 -140 20 -80 58 -192 73 -215 7 -11 13
-28 13 -39 0 -10 8 -37 19 -60 10 -23 24 -52 30 -66 6 -14 15 -32 20 -40 5 -8
26 -51 47 -95 22 -44 48 -93 59 -110 11 -16 26 -41 33 -55 34 -69 77 -130 214
-303 162 -206 530 -534 674 -601 17 -8 36 -22 44 -30 7 -9 17 -16 23 -16 6 0
18 -6 26 -14 19 -15 76 -45 146 -76 28 -12 73 -32 100 -45 65 -29 217 -91 285
-115 45 -16 120 -34 255 -61 28 -6 93 -19 146 -30 110 -23 407 -41 427 -26 17
13 18 507 0 525 -7 7 -43 12 -92 12 -45 0 -117 7 -161 15 -44 8 -98 14 -120
15 -38 0 -103 16 -240 61 -33 10 -67 19 -75 19 -8 1 -33 9 -55 20 -22 11 -45
19 -52 20 -14 0 -175 79 -238 116 -22 13 -53 31 -70 40 -16 9 -74 47 -129 83
-54 36 -109 73 -123 83 -122 80 -396 386 -492 548 -18 30 -47 80 -66 110 -19
30 -34 63 -35 72 0 9 -4 19 -9 22 -11 7 -59 109 -76 161 -7 22 -27 78 -44 125
-17 47 -31 94 -31 105 0 12 -8 48 -19 81 -10 32 -24 95 -30 139 -6 44 -16 103
-21 130 -5 28 -9 147 -9 265 -1 182 2 228 19 298 11 46 20 96 20 110 0 15 9
53 20 85 11 31 20 65 20 74 0 10 14 56 31 103 17 47 37 103 44 125 24 73 172
348 227 420 4 6 18 24 31 40 12 17 30 41 39 55 15 23 72 91 158 186 55 62 183
172 274 236 89 62 290 188 301 188 4 0 34 16 68 36 34 20 80 42 102 49 22 7
72 25 110 40 39 14 88 30 110 35 22 5 54 14 70 20 80 31 259 58 405 61 63 2
123 7 133 11 16 8 17 29 15 276 l-3 267 -80 1 c-44 1 -118 -2 -165 -6z M3897 5685 c-92 -8 -174 -20 -198 -29 -22 -9 -52 -16 -67 -16 -15 0
-44 -9 -65 -20 -20 -11 -44 -20 -52 -20 -9 0 -33 -9 -53 -19 -20 -11 -62 -31
-92 -46 -92 -44 -205 -108 -241 -137 -124 -100 -161 -132 -220 -189 -113 -110
-279 -340 -304 -419 -4 -14 -13 -32 -20 -40 -7 -8 -18 -33 -25 -55 -7 -22 -16
-44 -20 -50 -10 -16 -57 -171 -80 -268 -30 -130 -30 -492 1 -634 27 -123 68
-262 86 -288 7 -11 13 -28 13 -38 0 -10 9 -35 19 -55 10 -20 29 -57 42 -82 12
-25 30 -56 39 -70 144 -216 212 -297 348 -410 148 -123 215 -167 377 -244 190
-92 395 -142 600 -148 l90 -3 5 820 5 820 815 5 815 5 3 74 c3 78 -5 139 -37
281 -26 116 -48 192 -66 226 -8 16 -15 35 -15 42 0 7 -9 31 -20 53 -11 21 -30
58 -42 82 -19 37 -102 165 -174 267 -41 59 -191 206 -269 265 -41 30 -80 62
-88 69 -8 8 -29 22 -48 30 -36 17 -59 30 -98 59 -13 9 -31 17 -39 17 -9 0 -23
6 -31 14 -9 8 -34 21 -56 29 -22 8 -65 25 -95 37 -30 12 -80 29 -110 36 -30 8
-69 19 -87 24 -27 9 -350 42 -378 38 -5 0 -81 -6 -168 -13z M250 4040 c-11 -7 -13 -39 -11 -157 2 -142 6 -183 31 -373 18 -136
45 -282 67 -355 9 -27 21 -75 28 -105 7 -30 17 -68 23 -85 28 -82 45 -134 57
-175 23 -77 45 -134 60 -162 8 -14 15 -33 15 -43 0 -9 8 -33 19 -53 10 -20 28
-57 39 -82 102 -230 288 -536 467 -769 121 -158 401 -450 555 -577 19 -16 50
-44 70 -61 19 -18 38 -33 42 -33 3 0 31 -20 61 -45 31 -25 59 -45 63 -45 4 0
16 -7 26 -17 10 -9 27 -21 37 -27 10 -6 29 -18 42 -27 55 -38 199 -129 203
-129 3 0 20 -10 38 -22 56 -38 347 -177 493 -236 101 -41 248 -91 300 -102 22
-5 57 -16 77 -24 21 -9 48 -16 60 -16 20 0 72 -11 243 -51 59 -14 139 -27 245
-39 207 -24 292 -31 382 -28 l93 3 3 250 c1 138 0 259 -2 271 -5 20 -14 21
-164 27 -87 4 -182 11 -212 17 -30 5 -111 19 -180 30 -234 37 -372 70 -447
105 -17 8 -39 15 -50 15 -10 1 -36 9 -58 20 -22 11 -48 19 -58 20 -10 0 -35 9
-55 19 -20 11 -66 33 -102 49 -125 58 -295 144 -340 172 -43 27 -62 39 -120
71 -43 25 -83 52 -160 111 -41 32 -84 64 -95 72 -147 107 -431 391 -537 537
-9 13 -24 33 -33 44 -138 179 -142 185 -205 295 -14 25 -36 61 -48 80 -12 19
-34 58 -47 85 -14 28 -30 57 -35 65 -15 25 -90 190 -90 200 0 5 -10 31 -21 57
-53 118 -59 135 -59 151 0 9 -9 34 -20 55 -11 20 -20 47 -20 59 0 13 -9 50
-19 83 -66 202 -121 572 -121 807 0 44 -4 59 -17 66 -23 12 -494 13 -513 2z"/></g>
</svg>